<?xml version="1.0" encoding="UTF-8"?>
<svg width="32" height="32" viewBox="0 0 32 32" version="1.1" xmlns="http://www.w3.org/2000/svg">
  <rect width="32" height="32" rx="8" fill="#2563EB"/>
  <path d="M12.44 8a2.22 2.22 0 0 1 2.22 2.22v13.33a2.22 2.22 0 0 1-4.41.39 2.22 2.22 0 0 1-2.63-2.74 2.67 2.67 0 0 1-.3-4.96 2.22 2.22 0 0 1 1.17-3.77 2.22 2.22 0 0 1 1.76-2.67A2.22 2.22 0 0 1 12.44 8z" fill="#FFFFFF"/>
  <path d="M19.56 8a2.22 2.22 0 0 0-2.22 2.22v13.33a2.22 2.22 0 0 0 4.41.39 2.22 2.22 0 0 0 2.63-2.74 2.67 2.67 0 0 0 .3-4.96 2.22 2.22 0 0 0-1.17-3.77 2.22 2.22 0 0 0-1.76-2.67A2.22 2.22 0 0 0 19.56 8z" fill="#FFFFFF"/>
</svg>
